<?xml version="1.0" standalone="no"?>
<!DOCTYPE svg PUBLIC "-//W3C//DTD SVG 20010904//EN"
 "http://www.w3.org/TR/2001/REC-SVG-20010904/DTD/svg10.dtd">
<svg version="1.0" xmlns="http://www.w3.org/2000/svg"
 width="276.000000pt" height="80.000000pt" viewBox="0 0 276.000000 80.000000"
 preserveAspectRatio="xMidYMid meet">

<g transform="translate(0.000000,80.000000) scale(0.100000,-0.100000)"
fill="#000000" stroke="none">
<path d="M536 519 c-36 -28 -45 -54 -37 -108 6 -42 9 -46 75 -85 38 -23 73
-48 79 -57 13 -21 2 -64 -23 -89 -28 -28 -1 -26 35 2 79 62 60 151 -43 200
-39 19 -92 69 -92 88 0 5 12 22 26 39 30 36 19 41 -20 10z"/>
<path d="M642 523 c16 -10 31 -31 36 -53 l10 -35 1 42 c1 44 -16 63 -56 63
-14 0 -12 -4 9 -17z"/>
<path d="M1300 518 c-49 -34 -70 -67 -76 -125 -15 -120 24 -199 110 -223 39
-11 49 -10 89 8 52 23 71 52 85 130 11 62 1 124 -25 161 -30 39 -82 71 -118
71 -18 0 -47 -10 -65 -22z m114 -28 c18 -30 21 -51 20 -140 0 -112 -8 -139
-50 -166 -23 -16 -26 -15 -44 1 -11 10 -25 34 -31 53 -15 46 -15 189 1 236 21
65 71 73 104 16z"/>
<path d="M2047 529 c-27 -16 -47 -64 -47 -114 0 -44 1 -46 51 -73 103 -55 114
-65 112 -103 -1 -23 -10 -41 -28 -56 -25 -22 -25 -23 -5 -23 30 0 78 54 86 98
10 51 -10 80 -84 122 -65 36 -100 77 -89 101 4 8 14 24 23 37 17 23 10 28 -19
11z"/>
<path d="M2152 513 c14 -16 30 -37 36 -48 10 -18 11 -15 12 17 0 39 -19 58
-56 58 -15 0 -14 -4 8 -27z"/>
<path d="M0 350 l0 -180 29 0 c36 0 41 13 41 101 0 61 2 69 19 69 11 0 26 -7
34 -15 8 -8 17 -11 21 -8 8 8 8 93 0 93 -3 0 -15 -11 -26 -25 -35 -45 -48 -33
-48 44 0 88 -5 101 -41 101 l-29 0 0 -180z"/>
<path d="M173 496 c18 -28 23 -30 25 -14 5 30 -5 48 -27 48 -20 0 -20 -1 2
-34z"/>
<path d="M301 512 c-16 -30 -13 -72 9 -137 11 -32 18 -61 15 -64 -3 -3 -24 -4
-46 -4 -34 2 -41 -2 -49 -23 -6 -14 -10 -35 -9 -47 0 -17 4 -13 13 13 12 32
16 35 52 35 34 0 40 -4 52 -30 30 -70 38 -80 65 -83 15 -2 27 1 27 7 0 29 -91
326 -103 339 -13 13 -16 12 -26 -6z"/>
<path d="M760 350 l0 -180 35 0 35 0 0 85 0 85 50 0 50 0 0 -69 c0 -91 5 -101
46 -101 l34 0 0 180 0 180 -34 0 c-41 0 -46 -10 -46 -101 l0 -69 -50 0 -50 0
0 85 0 85 -35 0 -35 0 0 -180z"/>
<path d="M1090 350 l0 -180 40 0 40 0 0 180 0 180 -40 0 -40 0 0 -180z"/>
<path d="M1552 494 c6 -24 8 -84 5 -154 -6 -128 -1 -170 19 -170 10 0 13 8 10
23 -12 57 -16 154 -10 218 l7 70 53 -101 c65 -122 121 -210 133 -210 13 0 21
65 21 180 0 170 -14 209 -20 56 l-5 -129 -58 105 c-65 120 -80 137 -130 145
l-36 5 11 -38z"/>
<path d="M1866 438 c-3 -50 -6 -131 -6 -180 l0 -88 35 0 35 0 0 180 0 180 -29
0 -28 0 -7 -92z"/>
<path d="M2237 523 c-4 -3 -7 -25 -6 -47 0 -38 1 -39 10 -16 6 14 20 35 31 47
l21 23 -25 0 c-13 0 -28 -3 -31 -7z"/>
<path d="M2330 350 l0 -180 35 0 35 0 0 180 0 180 -35 0 -35 0 0 -180z"/>
<path d="M2450 523 c1 -4 10 -24 20 -43 l20 -35 -2 40 c-2 29 -8 41 -20 43
-10 2 -18 0 -18 -5z"/>
<path d="M2586 478 c-8 -24 -18 -54 -21 -68 -7 -24 -7 -24 8 -5 15 20 16 20
25 -5 5 -14 13 -40 17 -58 8 -38 -12 -51 -51 -33 -22 10 -26 8 -34 -15 -13
-33 -12 -44 1 -21 10 17 37 21 76 11 16 -4 26 -19 35 -48 16 -55 25 -66 60
-66 23 0 28 4 24 18 -3 9 -21 71 -40 137 -52 179 -58 195 -72 195 -7 0 -19
-19 -28 -42z"/>
<path d="M250 359 c0 -5 5 -7 10 -4 6 3 10 8 10 11 0 2 -4 4 -10 4 -5 0 -10
-5 -10 -11z"/>
<path d="M2000 229 c0 -41 11 -53 55 -63 30 -7 30 -6 8 11 -11 10 -31 34 -42
53 l-21 35 0 -36z"/>
<path d="M490 227 c0 -33 20 -54 58 -61 l33 -6 -30 26 c-16 13 -33 34 -36 44
-9 27 -25 25 -25 -3z"/>
<path d="M2508 224 c-5 -4 -8 -19 -8 -33 1 -23 2 -24 11 -8 11 19 9 53 -3 41z"/>
</g>
</svg>
