<?xml version="1.0" standalone="no"?>
<!DOCTYPE svg PUBLIC "-//W3C//DTD SVG 20010904//EN"
 "http://www.w3.org/TR/2001/REC-SVG-20010904/DTD/svg10.dtd">
<svg version="1.0" xmlns="http://www.w3.org/2000/svg"
 width="192.000000pt" height="196.000000pt" viewBox="0 0 192.000000 196.000000"
 preserveAspectRatio="xMidYMid meet">

<g transform="translate(0.000000,196.000000) scale(0.100000,-0.100000)"
fill="#000000" stroke="none">
<path d="M1075 1603 c-67 -24 -109 -55 -144 -107 -46 -67 -73 -158 -79 -268
l-5 -98 -68 0 c-71 0 -84 -7 -74 -40 6 -17 15 -20 76 -20 l69 0 0 -314 c0
-361 2 -354 -83 -363 -45 -5 -48 -8 -45 -32 l3 -26 216 -3 c175 -2 218 0 228
12 19 22 2 46 -33 46 -58 0 -106 19 -116 46 -6 14 -10 161 -10 330 l0 304 104
0 c108 0 124 7 110 45 -5 12 -27 15 -110 15 l-104 0 0 109 c0 224 45 322 149
325 69 1 123 -56 107 -117 -3 -14 -18 -40 -33 -58 l-27 -32 23 -18 c28 -23 72
-24 111 -4 37 19 65 90 56 139 -21 111 -186 177 -321 129z"/>
</g>
</svg>
